<?xml version="1.0" encoding="UTF-8"?>
<svg width="93px" height="78px" viewBox="0 0 93 78" version="1.1" xmlns="http://www.w3.org/2000/svg" xmlns:xlink="http://www.w3.org/1999/xlink">
    <title>Group 7</title>
    <g id="Desktop" stroke="none" stroke-width="1" fill="none" fill-rule="evenodd" opacity="0.184929984">
        <g id="Master" transform="translate(-747.000000, -9749.000000)" fill="#8C9BB1" fill-rule="nonzero">
            <g id="Group-6" transform="translate(0.000000, 9202.000000)">
                <g id="Group-5" transform="translate(130.000000, 235.000000)">
                    <g id="Group-39" transform="translate(617.000000, 312.000000)">
                        <path d="M49,78 C63.1508197,75.1016393 73.9344262,68.8360656 81.3508197,59.2032787 C88.7672131,49.5704918 92.4754098,37.252459 92.4754098,22.2491803 L92.4754098,22.2491803 L92.4754098,0 L54.1147541,0 L54.1147541,38.3606557 L71.2491803,38.3606557 C70.0557377,43.4754098 67.5409836,47.8229508 63.704918,51.4032787 C59.8688525,54.9836066 54.9672131,57.4557377 49,58.8196721 L49,58.8196721 L49,78 Z" id="’"></path>
                        <path d="M0,78 C14.1508197,75.1016393 24.9344262,68.8360656 32.3508197,59.2032787 C39.7672131,49.5704918 43.4754098,37.252459 43.4754098,22.2491803 L43.4754098,22.2491803 L43.4754098,0 L5.1147541,0 L5.1147541,38.3606557 L22.2491803,38.3606557 C21.0557377,43.4754098 18.5409836,47.8229508 14.704918,51.4032787 C10.8688525,54.9836066 5.96721311,57.4557377 0,58.8196721 L0,58.8196721 L0,78 Z" id="’-copy"></path>
                    </g>
                </g>
            </g>
        </g>
    </g>
</svg>