<?xml version="1.0" encoding="UTF-8"?>
<svg width="55px" height="37px" viewBox="0 0 55 37" version="1.1" xmlns="http://www.w3.org/2000/svg" xmlns:xlink="http://www.w3.org/1999/xlink">
    <!-- Generator: Sketch 55.2 (78181) - https://sketchapp.com -->
    <title>‘‘</title>
    <desc>Created with Sketch.</desc>
    <g id="Index" stroke="none" stroke-width="1" fill="none" fill-rule="evenodd">
        <g id="Article-Single" transform="translate(-614.000000, -2027.000000)" fill="#141414">
            <g id="Group-8" transform="translate(614.000000, 2027.000000)">
                <g id="‘‘-2">
                    <path d="M11.6260163,37 C4.13617886,37 0,30.5652174 0,23.326087 C0,12.1801242 10.3963415,0 14.1971545,0 C15.0914634,0 15.6504065,0.459627329 15.6504065,1.26397516 C15.6504065,3.67701863 5.81300813,9.76708075 5.81300813,17.6956522 C5.81300813,18.8447205 6.14837398,20.4534161 7.4898374,20.4534161 C8.94308943,20.4534161 11.2906504,18.1552795 13.9735772,18.1552795 C18.3333333,18.1552795 21.2398374,22.2919255 21.2398374,26.6583851 C21.2398374,32.2888199 17.3272358,37 11.6260163,37 Z M45.3861789,37 C37.8963415,37 33.7601626,30.5652174 33.7601626,23.326087 C33.7601626,12.1801242 44.1565041,0 47.9573171,0 C48.851626,0 49.4105691,0.459627329 49.4105691,1.26397516 C49.4105691,3.67701863 39.5731707,9.76708075 39.5731707,17.6956522 C39.5731707,18.8447205 39.9085366,20.4534161 41.25,20.4534161 C42.703252,20.4534161 45.050813,18.1552795 47.7337398,18.1552795 C52.0934959,18.1552795 55,22.2919255 55,26.6583851 C55,32.2888199 51.0873984,37 45.3861789,37 Z" id="‘‘"></path>
                </g>
            </g>
        </g>
    </g>
</svg>