<?xml version="1.0" encoding="UTF-8"?>
<svg width="70px" height="70px" viewBox="0 0 70 70" version="1.1" xmlns="http://www.w3.org/2000/svg" xmlns:xlink="http://www.w3.org/1999/xlink">
    <title>Shape</title>
    <g id="Page-1" stroke="none" stroke-width="1" fill="none" fill-rule="evenodd">
        <g id="noun_control_196590" transform="translate(-15.000000, 0.000000)" fill="#FFFFFF" fill-rule="nonzero">
            <path d="M40.7,25.1 C35.7,25.1 31.6,28.7 30.8,33.4 L15.6,33.4 L15.6,36.7 L30.8,36.7 C31.6,41.4 35.7,45 40.7,45 C45.7,45 49.8,41.4 50.6,36.7 L84.4,36.7 L84.4,33.4 L50.6,33.4 C49.8,28.7 45.7,25.1 40.7,25.1 Z M40.7,41.8 C37,41.8 34,38.8 34,35.1 C34,31.4 37,28.4 40.7,28.4 C44.4,28.4 47.4,31.4 47.4,35.1 C47.4,38.8 44.4,41.8 40.7,41.8 Z M57.9,2.84217094e-14 C52.9,2.84217094e-14 48.8,3.6 48,8.3 L15.6,8.3 L15.6,11.6 L48,11.6 C48.8,16.3 52.9,19.9 57.9,19.9 C62.9,19.9 67,16.3 67.8,11.6 L84.4,11.6 L84.4,8.3 L67.8,8.3 C67,3.6 62.8,2.84217094e-14 57.9,2.84217094e-14 Z M57.9,16.7 C54.2,16.7 51.2,13.7 51.2,10 C51.2,6.3 54.2,3.3 57.9,3.3 C61.6,3.3 64.6,6.3 64.6,10 C64.6,13.7 61.6,16.7 57.9,16.7 Z M58.8,50 C53.8,50 49.7,53.6 48.9,58.3 L15.6,58.3 L15.6,61.6 L48.9,61.6 C49.7,66.3 53.8,69.9 58.8,69.9 C63.8,69.9 67.9,66.3 68.7,61.6 L84.4,61.6 L84.4,58.3 L68.7,58.3 C67.9,53.6 63.8,50 58.8,50 Z M58.8,66.7 C55.1,66.7 52.1,63.7 52.1,60 C52.1,56.3 55.1,53.3 58.8,53.3 C62.5,53.3 65.5,56.3 65.5,60 C65.5,63.7 62.5,66.7 58.8,66.7 Z" id="Shape"></path>
        </g>
    </g>
</svg>