<?xml version="1.0" encoding="UTF-8"?>
<svg width="42px" height="84px" viewBox="0 0 42 84" version="1.1" xmlns="http://www.w3.org/2000/svg" xmlns:xlink="http://www.w3.org/1999/xlink">
    <title>Path</title>
    <g id="Page-1" stroke="none" stroke-width="1" fill="none" fill-rule="evenodd">
        <g id="noun_dollar_2095866" transform="translate(-27.000000, 0.615000)" fill="#FFFFFF" fill-rule="nonzero">
            <path d="M52.465,34.201 C44.191,30.777 42.795,29.031 42.795,26.407 C42.795,25.246 43.286,21.461 49.608,21.461 C54.999,21.461 58.391,23.399 59.838,24.227 L62.968,26.018 L67.498,14.057 L65.256,12.742 C62.091,10.886 58.598,9.743 54.646,9.276 L54.646,0 L42.703,0 L42.703,10.023 C34.057,12.377 28.612,19.024 28.612,27.528 C28.612,38.282 37.383,43.172 45.931,46.523 C53.509,49.594 54.554,52.304 54.554,54.777 C54.554,58.406 51.328,60.841 46.528,60.841 C42.465,60.841 38.08,59.535 34.798,57.347 L31.52,55.161 L27.169,67.312 L29.062,68.664 C32.247,70.939 37.119,72.591 42.051,73.146 L42.051,82.768 L54.086,82.768 L54.086,72.458 C63.008,70 68.831,62.896 68.831,54.121 C68.831,42.381 60.076,37.307 52.465,34.201 Z" id="Path"></path>
        </g>
    </g>
</svg>