<?xml version="1.0" encoding="UTF-8"?>
<svg width="348px" height="346px" viewBox="0 0 348 346" version="1.1" xmlns="http://www.w3.org/2000/svg" xmlns:xlink="http://www.w3.org/1999/xlink">
    <title>Group</title>
    <g id="Page-1" stroke="none" stroke-width="1" fill="none" fill-rule="evenodd">
        <g id="noun_expend_2934269" transform="translate(-76.000000, 0.900000)" fill="#FFFFFF" fill-rule="nonzero">
            <g id="Group" transform="translate(76.300000, 0.000000)">
                <path d="M10.3,96.2 C15.8,96.2 20.3,91.7 20.3,86.2 L20.3,34.6 L115.7,131.4 C117.7,133.4 120.2,134.4 122.8,134.4 C125.3,134.4 127.9,133.4 129.8,131.5 C133.7,127.6 133.8,121.3 129.9,117.4 L34.2,20.1 L94.4,20.1 C99.9,20.1 104.4,15.6 104.4,10.1 C104.4,4.6 99.9,0.1 94.4,0.1 L10.4,0.1 C10.4,0.1 10.4,0.1 10.4,0.1 L10.3,0.1 C10.2,0.1 10.1,0.1 10,0.1 C9.8,0.1 9.6,0.1 9.3,0.1 C9.2,0.1 9,0.1 8.9,0.2 C8.7,0.2 8.5,0.2 8.4,0.3 C8.2,0.3 8.1,0.4 7.9,0.4 C7.7,0.4 7.6,0.5 7.4,0.5 C7.2,0.5 7.1,0.6 6.9,0.7 C6.7,0.8 6.6,0.8 6.4,0.9 C6.3,1 6.1,1 6,1.1 C5.8,1.2 5.7,1.2 5.5,1.3 C5.4,1.4 5.2,1.5 5.1,1.5 C5,1.6 4.8,1.7 4.7,1.8 C4.6,1.9 4.4,2 4.3,2.1 C4.2,2.2 4,2.3 3.9,2.4 C3.7,2.5 3.6,2.7 3.4,2.8 C3.3,2.9 3.2,2.9 3.2,3 C3.2,3 3.2,3 3.2,3 C3,3.2 2.8,3.4 2.7,3.6 C2.6,3.7 2.5,3.8 2.5,3.9 C2.3,4.1 2.1,4.3 2,4.6 C1.9,4.8 1.8,4.9 1.7,5.1 C1.6,5.2 1.5,5.3 1.5,5.5 C1.4,5.6 1.4,5.8 1.3,6 C1.2,6.1 1.2,6.3 1.1,6.4 C1,6.5 1,6.7 0.9,6.8 C0.8,7 0.8,7.1 0.7,7.3 C0.7,7.4 0.6,7.6 0.6,7.7 C0.6,7.9 0.5,8.1 0.5,8.2 C0.4,8.5 0.4,8.8 0.4,9.1 C0.4,9.2 0.4,9.3 0.4,9.4 C0.4,9.7 0.4,9.9 0.4,10.2 C0.4,10.2 0.4,10.2 0.4,10.2 L0.4,86.2 C0.3,91.7 4.8,96.2 10.3,96.2 Z" id="Path"></path>
                <path d="M117.2,215 L20,310.8 L20,250.6 C20,245.1 15.5,240.6 10,240.6 C4.5,240.6 -1.42108547e-14,245.1 -1.42108547e-14,250.6 L-1.42108547e-14,334.7 C-1.42108547e-14,334.8 -1.42108547e-14,334.9 -1.42108547e-14,335 C-1.42108547e-14,335.2 -1.42108547e-14,335.4 -1.42108547e-14,335.6 C-1.42108547e-14,335.8 -1.42108547e-14,335.9 0.1,336.1 C0.1,336.3 0.1,336.4 0.2,336.6 C0.2,336.8 0.3,336.9 0.3,337.1 C0.3,337.3 0.4,337.4 0.4,337.6 C0.4,337.8 0.5,337.9 0.6,338.1 C0.7,338.3 0.7,338.4 0.8,338.6 C0.9,338.7 0.9,338.9 1,339 C1.1,339.2 1.1,339.3 1.2,339.5 C1.3,339.6 1.4,339.8 1.4,339.9 C1.5,340 1.6,340.2 1.7,340.3 C1.8,340.4 1.9,340.6 2,340.7 C2.1,340.8 2.2,341 2.3,341.1 C2.4,341.3 2.6,341.4 2.7,341.5 C2.8,341.6 2.8,341.7 2.9,341.8 C2.9,341.8 2.9,341.8 2.9,341.8 C3.1,342 3.3,342.2 3.5,342.3 C3.6,342.4 3.8,342.5 3.9,342.7 C4.1,342.8 4.2,342.9 4.4,343.1 C4.5,343.2 4.7,343.3 4.9,343.4 C5,343.5 5.2,343.6 5.3,343.6 C5.5,343.7 5.6,343.7 5.8,343.8 C5.9,343.9 6.1,343.9 6.2,344 C6.3,344.1 6.5,344.1 6.6,344.2 C6.8,344.3 6.9,344.3 7.1,344.4 C7.2,344.4 7.4,344.5 7.5,344.5 C7.7,344.5 7.8,344.6 8,344.6 C8.2,344.6 8.3,344.7 8.5,344.7 C8.7,344.7 8.8,344.8 9,344.8 C9.3,344.8 9.7,344.8 10,344.8 C10,344.8 10,344.8 10,344.8 L86,344.8 C91.5,344.8 96,340.3 96,334.8 C96,329.3 91.5,324.8 86,324.8 L34.4,324.8 L131.2,229.4 C135.1,225.5 135.2,219.2 131.3,215.3 C127.5,211.1 121.2,211.1 117.2,215 Z" id="Path"></path>
                <path d="M347.3,9.2 C347.3,9 347.3,8.9 347.2,8.8 C347.2,8.6 347.2,8.5 347.1,8.3 C347.1,8.1 347,8 347,7.8 C347,7.6 346.9,7.5 346.9,7.3 C346.9,7.1 346.8,7 346.7,6.8 C346.6,6.6 346.6,6.5 346.5,6.3 C346.4,6.2 346.4,6 346.3,5.9 C346.2,5.7 346.2,5.6 346.1,5.4 C346,5.3 345.9,5.1 345.9,5 C345.8,4.9 345.7,4.7 345.6,4.6 C345.5,4.5 345.4,4.3 345.3,4.2 C345.2,4.1 345.1,3.9 345,3.8 C344.9,3.6 344.7,3.5 344.6,3.3 C344.5,3.2 344.5,3.1 344.4,3.1 C344.4,3.1 344.4,3.1 344.4,3.1 C344.2,2.9 343.9,2.6 343.7,2.4 C343.6,2.3 343.5,2.2 343.4,2.2 C343.2,2.1 343.1,2 342.9,1.8 C342.8,1.7 342.6,1.6 342.5,1.5 C342.4,1.4 342.2,1.3 342.1,1.2 C342,1.1 341.8,1.1 341.7,1 C341.5,0.9 341.4,0.8 341.2,0.8 C341.1,0.7 340.9,0.7 340.8,0.7 C340.6,0.6 340.4,0.6 340.3,0.5 C340.2,0.5 340.1,0.4 340,0.4 C339.8,0.3 339.6,0.3 339.4,0.2 C339.3,0.2 339.2,0.2 339,0.1 C338.7,0.1 338.5,1.42108547e-14 338.2,1.42108547e-14 C337.9,1.42108547e-14 337.7,1.42108547e-14 337.4,1.42108547e-14 C337.4,1.42108547e-14 337.4,1.42108547e-14 337.4,1.42108547e-14 L261.3,1.42108547e-14 C255.8,1.42108547e-14 251.3,4.5 251.3,10 C251.3,15.5 255.8,20 261.3,20 L313,20 L216.3,115.7 C212.4,119.6 212.3,125.9 216.2,129.8 C218.2,131.8 220.7,132.8 223.3,132.8 C225.8,132.8 228.4,131.8 230.3,129.9 L327.2,34 L327.2,94.1 C327.2,99.6 331.7,104.1 337.2,104.1 C342.7,104.1 347.2,99.6 347.2,94.1 L347.2,10.1 C347.2,10 347.2,9.9 347.2,9.8 C347.3,9.6 347.3,9.4 347.3,9.2 Z" id="Path"></path>
                <path d="M337.3,248.6 C331.8,248.6 327.3,253.1 327.3,258.6 L327.3,310.2 L231.9,213.4 C228,209.5 221.7,209.4 217.8,213.3 C213.9,217.2 213.8,223.5 217.7,227.4 L313.5,324.6 L253.3,324.6 C247.8,324.6 243.3,329.1 243.3,334.6 C243.3,340.1 247.8,344.6 253.3,344.6 L337.4,344.6 L337.4,344.6 L337.4,344.6 C337.7,344.6 338.1,344.6 338.4,344.6 C338.5,344.6 338.7,344.6 338.8,344.5 C339,344.5 339.2,344.5 339.3,344.4 C339.5,344.4 339.6,344.3 339.8,344.3 C340,344.3 340.1,344.2 340.3,344.2 C340.5,344.2 340.6,344.1 340.8,344 C341,343.9 341.1,343.9 341.3,343.8 C341.4,343.7 341.6,343.7 341.7,343.6 C341.9,343.5 342,343.5 342.2,343.4 C342.3,343.3 342.5,343.2 342.6,343.2 C342.7,343.1 342.9,343 343,342.9 C343.1,342.8 343.3,342.7 343.4,342.6 C343.5,342.5 343.7,342.4 343.8,342.3 C343.9,342.2 344.1,342 344.2,341.9 C344.3,341.8 344.4,341.7 344.5,341.7 C344.5,341.7 344.5,341.7 344.5,341.7 C344.7,341.5 344.8,341.3 345,341.2 C345.1,341 345.3,340.9 345.4,340.7 C345.5,340.5 345.7,340.4 345.8,340.2 C345.9,340 346,339.9 346.1,339.7 C346.2,339.6 346.2,339.5 346.3,339.4 C346.4,339.2 346.5,339.1 346.5,338.9 C346.6,338.8 346.6,338.6 346.7,338.5 C346.8,338.4 346.8,338.2 346.9,338 C347,337.8 347,337.7 347.1,337.5 C347.1,337.4 347.2,337.2 347.2,337.1 C347.2,336.9 347.3,336.8 347.3,336.6 C347.4,336.3 347.4,336 347.4,335.6 C347.4,335.5 347.4,335.5 347.4,335.4 C347.4,335.1 347.4,334.9 347.4,334.6 C347.4,334.6 347.4,334.6 347.4,334.6 L347.4,258.6 C347.3,253.1 342.9,248.6 337.3,248.6 Z" id="Path"></path>
            </g>
        </g>
    </g>
</svg>