<?xml version="1.0" encoding="UTF-8"?>
<svg width="89px" height="59px" viewBox="0 0 89 59" version="1.1" xmlns="http://www.w3.org/2000/svg" xmlns:xlink="http://www.w3.org/1999/xlink">
    <title>Shape</title>
    <g id="Page-1" stroke="none" stroke-width="1" fill="none" fill-rule="evenodd">
        <g id="noun_simplify_2021750" transform="translate(-6.000000, 0.830000)" fill="#FFFFFF" fill-rule="nonzero">
            <path d="M94.12,26.96 L84.64,17.48 C83.4691563,16.306395 81.5686051,16.3041564 80.3950001,17.4750001 C79.221395,18.6458437 79.2191564,20.5463949 80.39,21.72 L84.76,26.08 L64.17,26.08 L64.17,9.52 C64.1644882,4.26453392 59.9054661,0.0055117676 54.65,-7.10542736e-15 L15.52,-7.10542736e-15 C10.2645339,0.0055117676 6.00551177,4.26453392 6,9.52 L6,55.17 C6,56.8268542 7.34314575,58.1700473 9,58.1700473 C10.6568542,58.1700473 12,56.8268542 12,55.17 L12,9.52 C12.005493,7.57823751 13.5782375,6.005493 15.52,6 L54.65,6 C56.5917625,6.005493 58.164507,7.57823751 58.17,9.52 L58.17,26.08 L51.17,26.08 L51.17,22.56 C51.1644882,17.3045339 46.9054661,13.0455118 41.65,13.04 L28.65,13.04 C26.1034923,13.0079311 23.6500859,13.996432 21.83712,15.7849746 C20.024154,17.5735171 19.0024704,20.0132915 19,22.56 L19,48.65 C19.0026433,51.1809863 20.0119827,53.6069647 21.8054093,55.3928873 C23.5988358,57.17881 26.0290249,58.1779688 28.56,58.1700473 L54.65,58.1700473 C59.9054661,58.1644882 64.1644882,53.9054661 64.17,48.65 L64.17,32.08 L84.76,32.08 L80.39,36.45 C79.6325969,37.2091894 79.3377504,38.314779 79.6165261,39.350304 C79.8953019,40.385829 80.7053473,41.1939684 81.7415261,41.470304 C82.777705,41.7466396 83.8825969,41.4491894 84.64,40.69 L94.12,31.17 C94.6848636,30.6070944 95.0023657,29.8424544 95.0023657,29.045 C95.0023657,28.2475456 94.6848636,27.4829056 94.12,26.92 L94.12,26.96 Z M58.17,48.65 C58.164507,50.5917625 56.5917625,52.164507 54.65,52.1701278 L28.56,52.1701278 C27.6203295,52.1779898 26.7162559,51.8109835 26.0480411,51.1502767 C25.3798262,50.4895699 25.0026281,49.5897008 25,48.65 L25,22.56 C25.005493,20.6182375 26.5782375,19.045493 28.52,19.04 L41.61,19.04 C43.5517625,19.045493 45.124507,20.6182375 45.13,22.56 L45.13,26.08 L39.3,26.08 C35.3203108,26.0855082 32.0955082,29.3103108 32.09,33.29 L32.09,37.92 C32.0820272,39.838324 32.8378096,41.680957 34.1905237,43.0411757 C35.5432378,44.4013945 37.3816613,45.1673596 39.3,45.17 L43.92,45.17 C47.897413,45.1590126 51.1190126,41.937413 51.13,37.96 L51.13,32.08 L58.13,32.08 L58.17,48.65 Z M45.17,32.08 L45.17,37.92 C45.181265,38.2548471 45.05319,38.5793768 44.8162834,38.8162834 C44.5793768,39.05319 44.2548471,39.181265 43.92,39.17 L39.3,39.17 C38.6317355,39.17 38.09,38.6282645 38.09,37.96 L38.09,33.29 C38.09,32.6217355 38.6317355,32.08 39.3,32.08 L45.17,32.08 Z" id="Shape"></path>
        </g>
    </g>
</svg>