<?xml version="1.0" encoding="UTF-8"?>
<svg width="20px" height="20px" viewBox="0 0 20 20" version="1.1" xmlns="http://www.w3.org/2000/svg" xmlns:xlink="http://www.w3.org/1999/xlink">
    <title>Group</title>
    <g id="Page-1" stroke="none" stroke-width="1" fill="none" fill-rule="evenodd">
        <g id="noun_Settings_923272" transform="translate(-6.000000, 0.500000)" fill="#FFFFFF" fill-rule="nonzero">
            <g id="Group" transform="translate(6.500000, 0.000000)">
                <path d="M7.2,16.8 L7.2,18 C7.2,18.5 7.6,19 8.2,19 L10.9,19 C11.4,19 11.9,18.6 11.9,18 L11.8,16.8 C12.3,16.7 12.7,16.5 13,16.2 L13.9,17.1 C14.3,17.5 14.9,17.5 15.3,17.1 L17.2,15.2 C17.6,14.8 17.6,14.2 17.2,13.8 L16.4,13 C16.6,12.6 16.8,12.2 16.8,11.8 L18,11.8 C18.5,11.8 19,11.4 19,10.8 L19,8.1 C19,7.6 18.6,7.1 18,7.1 L16.8,7.2 C16.7,6.7 16.5,6.3 16.2,6 L17.1,5.1 C17.5,4.7 17.5,4.1 17.1,3.7 L15.2,1.8 C14.8,1.4 14.2,1.4 13.8,1.8 L13,2.7 C12.6,2.5 12.1,2.3 11.7,2.2 L11.7,1 C11.7,0.5 11.3,0 10.7,0 L8,0 C7.5,0 7,0.4 7,1 L7.1,2.1 C6.6,2.2 6.2,2.4 5.9,2.7 L5,1.8 C4.6,1.4 4,1.4 3.6,1.8 L1.7,3.7 C1.3,4.1 1.3,4.7 1.7,5.1 L2.6,5.9 C2.4,6.3 2.2,6.8 2.1,7.2 L1,7.2 C0.5,7.2 0,7.6 0,8.2 L0,10.9 C0,11.4 0.4,11.9 1,11.9 L2.2,11.8 C2.3,12.3 2.5,12.7 2.8,13 L1.9,13.9 C1.5,14.3 1.5,14.9 1.9,15.3 L3.8,17.2 C4.2,17.6 4.8,17.6 5.2,17.2 L6,16.3 C6.3,16.5 6.8,16.7 7.2,16.8 Z M4.9,15.2 L4.4,15.7 L3.2,14.5 L3.7,14 C4.1,13.6 4.2,12.9 3.9,12.3 C3.7,11.9 3.6,11.6 3.4,11.2 C3.2,10.6 2.7,10.2 2.1,10.2 C2.1,10.2 2.1,10.2 2.1,10.2 L1.5,10.2 L1.5,8.6 L2.2,8.6 C2.2,8.6 2.2,8.6 2.2,8.6 C2.8,8.6 3.4,8.2 3.6,7.6 C3.7,7.3 3.9,6.9 4,6.5 C4.3,6 4.2,5.3 3.8,4.8 L3.3,4.3 L4.5,3.1 L5,3.6 C5.4,4 6.1,4.1 6.7,3.9 C7,3.7 7.4,3.6 7.8,3.5 C8.4,3.3 8.8,2.8 8.8,2.1 L8.8,1.5 L10.4,1.5 L10.4,2.2 C10.4,2.8 10.8,3.4 11.4,3.5 C11.8,3.6 12.2,3.8 12.5,3.9 C13,4.2 13.7,4.1 14.2,3.6 L14.7,3.1 L15.9,4.3 L15.4,4.8 C15,5.2 14.9,5.9 15.1,6.5 C15.3,6.8 15.4,7.2 15.5,7.6 C15.7,8.2 16.2,8.6 16.9,8.6 L17.5,8.6 L17.5,10.2 L16.8,10.2 C16.8,10.2 16.8,10.2 16.8,10.2 C16.2,10.2 15.6,10.6 15.4,11.2 C15.3,11.6 15.1,12 15,12.3 C14.7,12.8 14.8,13.5 15.3,14 L15.8,14.5 L14.6,15.7 L14.1,15.2 C13.7,14.8 13,14.7 12.4,14.9 C12.1,15.1 11.7,15.2 11.3,15.3 C10.7,15.5 10.3,16 10.3,16.7 L10.3,17.5 L8.7,17.5 L8.7,16.8 C8.7,16.2 8.3,15.6 7.7,15.4 C7.3,15.3 7,15.1 6.6,15 C6.1,14.7 5.4,14.8 4.9,15.2 Z" id="Shape"></path>
                <path d="M13.6,9.5 C13.6,7.2 11.8,5.4 9.5,5.4 C7.2,5.4 5.4,7.2 5.4,9.5 C5.4,11.8 7.2,13.6 9.5,13.6 C11.8,13.6 13.6,11.8 13.6,9.5 Z M6.9,9.5 C6.9,8.1 8.1,6.9 9.5,6.9 C10.9,6.9 12.1,8.1 12.1,9.5 C12.1,10.9 10.9,12.1 9.5,12.1 C8.1,12.1 6.9,10.9 6.9,9.5 Z" id="Shape"></path>
            </g>
        </g>
    </g>
</svg>