<?xml version="1.0" encoding="UTF-8"?>
<svg width="90px" height="90px" viewBox="0 0 90 90" version="1.1" xmlns="http://www.w3.org/2000/svg" xmlns:xlink="http://www.w3.org/1999/xlink">
    <title>Shape</title>
    <g id="Page-1" stroke="none" stroke-width="1" fill="none" fill-rule="evenodd">
        <g id="noun_Table_1061423" transform="translate(-5.000000, 0.000000)" fill="#FFFFFF" fill-rule="nonzero">
            <path d="M82.5,0 L17.5,0 C10.9,0 5.5,5.4 5.5,12 L5.5,78 C5.5,84.6 10.9,90 17.5,90 L82.5,90 C89.1,90 94.5,84.6 94.5,78 L94.5,12 C94.5,5.4 89.1,0 82.5,0 Z M88.5,12 L88.5,18 L65.5,18 L65.5,6 L82.5,6 C85.8,6 88.5,8.7 88.5,12 Z M38.5,18 L38.5,6 L61.5,6 L61.5,18 L38.5,18 Z M61.5,22 L61.5,84 L38.5,84 L38.5,22 L61.5,22 Z M17.5,6 L34.5,6 L34.5,18 L11.5,18 L11.5,12 C11.5,8.7 14.2,6 17.5,6 Z M11.5,78 L11.5,22 L34.5,22 L34.5,84 L17.5,84 C14.2,84 11.5,81.3 11.5,78 Z M82.5,84 L65.5,84 L65.5,22 L88.5,22 L88.5,78 C88.5,81.3 85.8,84 82.5,84 Z M15.5,35 C15.5,33.9 16.4,33 17.5,33 L28.5,33 C29.6,33 30.5,33.9 30.5,35 C30.5,36.1 29.6,37 28.5,37 L17.5,37 C16.4,37 15.5,36.1 15.5,35 Z M30.5,47 C30.5,48.1 29.6,49 28.5,49 L17.5,49 C16.4,49 15.5,48.1 15.5,47 C15.5,45.9 16.4,45 17.5,45 L28.5,45 C29.6,45 30.5,45.9 30.5,47 Z M30.5,59 C30.5,60.1 29.6,61 28.5,61 L17.5,61 C16.4,61 15.5,60.1 15.5,59 C15.5,57.9 16.4,57 17.5,57 L28.5,57 C29.6,57 30.5,57.9 30.5,59 Z M30.5,71 C30.5,72.1 29.6,73 28.5,73 L17.5,73 C16.4,73 15.5,72.1 15.5,71 C15.5,69.9 16.4,69 17.5,69 L28.5,69 C29.6,69 30.5,69.9 30.5,71 Z M42.5,35 C42.5,33.9 43.4,33 44.5,33 L55.5,33 C56.6,33 57.5,33.9 57.5,35 C57.5,36.1 56.6,37 55.5,37 L44.5,37 C43.4,37 42.5,36.1 42.5,35 Z M42.5,47 C42.5,45.9 43.4,45 44.5,45 L55.5,45 C56.6,45 57.5,45.9 57.5,47 C57.5,48.1 56.6,49 55.5,49 L44.5,49 C43.4,49 42.5,48.1 42.5,47 Z M42.5,59 C42.5,57.9 43.4,57 44.5,57 L55.5,57 C56.6,57 57.5,57.9 57.5,59 C57.5,60.1 56.6,61 55.5,61 L44.5,61 C43.4,61 42.5,60.1 42.5,59 Z M57.5,71 C57.5,72.1 56.6,73 55.5,73 L44.5,73 C43.4,73 42.5,72.1 42.5,71 C42.5,69.9 43.4,69 44.5,69 L55.5,69 C56.6,69 57.5,69.9 57.5,71 Z M84.5,35 C84.5,36.1 83.6,37 82.5,37 L71.5,37 C70.4,37 69.5,36.1 69.5,35 C69.5,33.9 70.4,33 71.5,33 L82.5,33 C83.6,33 84.5,33.9 84.5,35 Z M84.5,47 C84.5,48.1 83.6,49 82.5,49 L71.5,49 C70.4,49 69.5,48.1 69.5,47 C69.5,45.9 70.4,45 71.5,45 L82.5,45 C83.6,45 84.5,45.9 84.5,47 Z M84.5,59 C84.5,60.1 83.6,61 82.5,61 L71.5,61 C70.4,61 69.5,60.1 69.5,59 C69.5,57.9 70.4,57 71.5,57 L82.5,57 C83.6,57 84.5,57.9 84.5,59 Z M84.5,71 C84.5,72.1 83.6,73 82.5,73 L71.5,73 C70.4,73 69.5,72.1 69.5,71 C69.5,69.9 70.4,69 71.5,69 L82.5,69 C83.6,69 84.5,69.9 84.5,71 Z" id="Shape"></path>
        </g>
    </g>
</svg>