<?xml version="1.0" encoding="UTF-8"?>
<svg width="78px" height="79px" viewBox="0 0 78 79" version="1.1" xmlns="http://www.w3.org/2000/svg" xmlns:xlink="http://www.w3.org/1999/xlink">
    <title>Group</title>
    <g id="Page-1" stroke="none" stroke-width="1" fill="none" fill-rule="evenodd">
        <g id="noun_User_2987415" transform="translate(-11.000000, 0.360000)" fill="#FFFFFF" fill-rule="nonzero">
            <g id="Group" transform="translate(11.000000, -0.000000)">
                <path d="M39,36.85 C35.2699486,36.85 31.9073711,34.6025334 30.4808782,31.1560277 C29.0543853,27.7095219 29.8450439,23.7430521 32.4840193,21.106939 C35.1229947,18.4708258 39.0903202,17.684472 42.5352759,19.1147042 C45.9802315,20.5449363 48.2240456,23.9099508 48.2200055,27.64 C48.2035066,32.7235964 44.0836113,36.8390232 39,36.85 Z M39,21.42 C35.5647889,21.42 32.78,24.2047889 32.78,27.64 C32.78,31.0752111 35.5647889,33.86 39,33.86 C42.4352111,33.86 45.22,31.0752111 45.22,27.64 C45.22,24.2047889 42.4352111,21.42 39,21.42 Z" id="Shape"></path>
                <path d="M57.28,57.58 L20.72,57.58 L20.72,48.02 C20.7255117,42.7755796 24.9755796,38.5255117 30.22,38.52 L47.78,38.52 C53.0244204,38.5255117 57.2744883,42.7755796 57.28,48.02 L57.28,57.58 Z M23.72,54.58 L54.28,54.58 L54.28,48.02 C54.2744934,44.4324325 51.3675675,41.5255066 47.78,41.52 L30.22,41.52 C26.6324325,41.5255066 23.7255066,44.4324325 23.72,48.02 L23.72,54.58 Z" id="Shape"></path>
                <path d="M39,78 C17.4608948,78 0,60.5391052 0,39 C0,17.4608948 17.4608948,0 39,0 C60.5391052,0 78,17.4608948 78,39 C78,49.3434431 73.8910832,59.2632457 66.5771645,66.5771645 C59.2632457,73.8910832 49.3434431,78 39,78 Z M39,3 C19.117749,3 3,19.117749 3,39 C3,58.882251 19.117749,75 39,75 C58.882251,75 75,58.882251 75,39 C75,19.117749 58.882251,3 39,3 Z" id="Shape"></path>
            </g>
        </g>
    </g>
</svg>